{"title":"The Mafia with Trevor McDonald pt2 S01E02 x264 RB58.mp4","uid":11788702,"size":530280620,"categoryP":"video","categoryS":"tv_shows","magnet":"?xt=urn:btih:e9cf5c583f53589608b87c437035cbbb2b6a23e2&amp;dn=The+Mafia+with+Trevor+McDonald+pt2+S01E02+x264+RB58.mp4&amp;tr=udp%3A%2F%2Ftracker.openbittorrent.com%3A80&amp;tr=udp%3A%2F%2Fopen.demonii.com%3A1337&amp;tr=udp%3A%2F%2Ftracker.coppersurfer.tk%3A6969&amp;tr=udp%3A%2F%2Fexodus.desync.com%3A6969","seeders":6,"leechers":0,"uploader":"RedBaron58","files":1,"time":1427848926,"description":"The Mafia with Trevor McDonald pt2 S01E02 x264 mp4\n &lt;a href=&quot;\nhttp://www.tvrage.com/shows/id-48117&quot; rel=&quot;nofollow&quot; target=&quot;_NEW&quot;&gt;\nhttp://www.tvrage.com/shows/id-48117&lt;/a&gt;\n\n\nPlease be patient My intial upload speed is limited.\nThank you for your kind comments and feedback on my other torrents, your feedback is welcome.\n\n\nAbout the Documentary:\nThe broadcaster embarks on an eye-opening journey inside the world of the American Mafia, talking to \npeople who have experienced first-hand the money, glamour and violence of the US's most famous organised \ncrime network. \nIn Philadelphia, the broadcaster explores one of the bloodiest periods in the American Mafia's long \nhistory, as he sits down with former crime boss Ralph Natale. In a revealing interview, \nthe ex-godfather spells out just how ruthless he had to be to control the men under him. \nIn New Jersey, Trevor seeks out one-time cop Ron Previte, who led a double life as a high-ranking \ngangster and paid FBI informant, earning over $1million for his role in convicting more than \n50 members of the Philadelphia Mob and their associates\n\n\nI hope you enjoy.\n\n\nTechnical:\n\nGeneral\nComplete name                            : H:The Mafia with Trevor McDonald pt2 S01E02 x264 RB58.mp4\nFormat                                   : MPEG-4\nFormat profile                           : Base Media\nCodec ID                                 : isom\nFile size                                : 506 MiB\nDuration                                 : 46mn 30s\nOverall bit rate                         : 1 520 Kbps\nWriting application                      : Lavf54.63.104\n\nVideo\nID                                       : 1\nFormat                                   : AVC\nFormat/Info                              : Advanced Video Codec\nFormat profile                           : &lt;a class=&quot;__cf_email__&quot; href=&quot;/cdn-cgi/l/email-protection&quot; data-cfemail=&quot;0a42636d624a4639243a&quot;&gt;[email&amp;#160;protected]&lt;/a&gt;&lt;script cf-hash='f9e31' type=&quot;text/javascript&quot;&gt;\n/* &lt;![CDATA[ */!function(){try{var t=&quot;currentScript&quot;in document?document.currentScript:function(){for(var t=document.getElementsByTagName(&quot;script&quot;),e=t.length;e--;)if(t[e].getAttribute(&quot;cf-hash&quot;))return t[e]}();if(t&amp;&amp;t.previousSibling){var e,r,n,i,c=t.previousSibling,a=c.getAttribute(&quot;data-cfemail&quot;);if(a){for(e=&quot;&quot;,r=parseInt(a.substr(0,2),16),n=2;a.length-n;n+=2)i=parseInt(a.substr(n,2),16)^r,e+=String.fromCharCode(i);e=document.createTextNode(e),c.parentNode.replaceChild(e,c)}}}catch(u){}}();/* ]]&gt; */&lt;/script&gt;\nFormat settings, CABAC                   : Yes\nFormat settings, ReFrames                : 4 frames\nCodec ID                                 : avc1\nCodec ID/Info                            : Advanced Video Coding\nDuration                                 : 46mn 30s\nBit rate                                 : 1 400 Kbps\nWidth                                    : 832 pixels\nHeight                                   : 468 pixels\nDisplay aspect ratio                     : 16:9\nFrame rate mode                          : Constant\nFrame rate                               : 25.000 fps\nColor space                              : YUV\nChroma subsampling                       : 4:2:0\nBit depth                                : 8 bits\nScan type                                : Progressive\nBits/(Pixel*Frame)                       : 0.144\nStream size                              : 466 MiB (92%)\nWriting library                          : x264 core 123 r2189 35cf912\nEncoding settings                        : cabac=1 / ref=3 / deblock=1:0:0\n\nAudio\nID                                       : 2\nFormat                                   : AAC\nFormat/Info                              : Advanced Audio Codec\nFormat profile                           : LC\nCodec ID                                 : 40\nDuration                                 : 46mn 30s\nBit rate mode                            : Constant\nBit rate                                 : 112 Kbps\nChannel(s)                               : 2 channels\nChannel positions                        : Front: L R\nSampling rate                            : 48.0 KHz\nCompression mode                         : Lossy\nStream size                              : 37.3 MiB (7%)","torrent":{"xt":"urn:btih:e9cf5c583f53589608b87c437035cbbb2b6a23e2","amp;dn":"The+Mafia+with+Trevor+McDonald+pt2+S01E02+x264+RB58.mp4","amp;tr":["udp%3A%2F%2Ftracker.openbittorrent.com%3A80","udp%3A%2F%2Fopen.demonii.com%3A1337","udp%3A%2F%2Ftracker.coppersurfer.tk%3A6969","udp%3A%2F%2Fexodus.desync.com%3A6969"],"infoHash":"e9cf5c583f53589608b87c437035cbbb2b6a23e2","infoHashBuffer":{"type":"Buffer","data":[233,207,92,88,63,83,88,150,8,184,124,67,112,53,203,187,43,106,35,226]},"announce":[],"urlList":[]}}